<?xml version="1.0" encoding="utf-8"?>
<!-- Generator: Adobe Illustrator 28.0.0, SVG Export Plug-In . SVG Version: 6.00 Build 0)  -->
<svg version="1.1" id="Layer_1" xmlns="http://www.w3.org/2000/svg" xmlns:xlink="http://www.w3.org/1999/xlink" x="0px" y="0px"
	 viewBox="0 0 196 196" enable-background="new 0 0 196 196" xml:space="preserve">
<g>
	<path fill-rule="evenodd" clip-rule="evenodd" fill="#005B37" d="M149,160.01c-0.78,0-1.55-0.1-2.31-0.31L24.98,127.09
		c-2.31-0.62-4.25-2.11-5.45-4.2s-1.53-4.51-0.91-6.82l19.67-73.41c1.05-3.93,4.63-6.67,8.71-6.67c0.78,0,1.55,0.1,2.31,0.31
		l121.71,32.61c2.31,0.62,4.25,2.11,5.45,4.2c1.21,2.09,1.53,4.51,0.91,6.82l-19.67,73.41C156.66,157.27,153.08,160.01,149,160.01z"
		/>
	<path fill="#020420" d="M47,38.99L47,38.99c0.51,0,1.03,0.07,1.53,0.2L170.24,71.8c1.54,0.41,2.82,1.41,3.63,2.8
		c0.81,1.4,1.02,3.01,0.61,4.55l-19.67,73.41c-0.7,2.62-3.09,4.45-5.81,4.45c-0.51,0-1.03-0.07-1.53-0.2L25.76,124.2
		c-1.54-0.41-2.82-1.41-3.63-2.8c-0.81-1.4-1.02-3.01-0.61-4.55l19.67-73.41C41.89,40.82,44.28,38.99,47,38.99 M47,32.99
		c-5.3,0-10.18,3.55-11.61,8.89l-19.67,73.41c-1.71,6.38,2.11,12.99,8.49,14.7l121.71,32.61c1.03,0.28,2.07,0.41,3.09,0.41
		c5.3,0,10.18-3.55,11.61-8.89l19.67-73.41c1.71-6.38-2.11-12.99-8.49-14.7L50.09,33.4C49.06,33.12,48.02,32.99,47,32.99L47,32.99z"
		/>
</g>
<g>
	<path fill-rule="evenodd" clip-rule="evenodd" fill="#017F4E" d="M133.53,171.4c-1.57,0-3.11-0.41-4.47-1.2l-109.12-63
		c-4.3-2.48-5.78-8-3.29-12.29l38-65.82c1.6-2.77,4.6-4.49,7.83-4.49c1.57,0,3.11,0.41,4.47,1.2l109.12,63
		c2.07,1.2,3.55,3.14,4.18,5.47c0.62,2.33,0.31,4.75-0.88,6.83l-38,65.82C139.75,169.68,136.75,171.4,133.53,171.4z"/>
	<path fill="#020420" d="M62.48,27.6L62.48,27.6c1.05,0,2.05,0.27,2.97,0.79l109.12,63c2.87,1.65,3.85,5.33,2.2,8.2l-38,65.82
		c-1.07,1.84-3.07,2.99-5.23,2.99c-1.05,0-2.05-0.27-2.97-0.79l-109.12-63c-2.87-1.65-3.85-5.33-2.2-8.2l38-65.82
		C58.31,28.75,60.31,27.6,62.48,27.6 M62.47,21.6c-4.16,0-8.21,2.15-10.43,5.99l-38,65.82c-3.3,5.72-1.32,13.09,4.39,16.39
		l109.12,63c1.88,1.08,3.93,1.6,5.97,1.6c4.16,0,8.21-2.15,10.43-5.99l38-65.82c3.3-5.72,1.32-13.09-4.39-16.39l-109.12-63
		C66.56,22.11,64.51,21.6,62.47,21.6L62.47,21.6z"/>
</g>
<g>
	<path fill-rule="evenodd" clip-rule="evenodd" fill="#01A364" d="M115.68,178.4c-2.41,0-4.67-0.93-6.36-2.62l-89.1-89.1
		c-1.69-1.69-2.62-3.95-2.62-6.36s0.93-4.67,2.62-6.36l53.74-53.74c1.69-1.69,3.95-2.62,6.36-2.62s4.67,0.93,6.36,2.62l89.1,89.1
		c3.51,3.51,3.51,9.22,0,12.73l-53.74,53.74C120.35,177.47,118.09,178.4,115.68,178.4z"/>
	<path fill="#020420" d="M80.32,20.6c1.61,0,3.12,0.62,4.24,1.74l89.1,89.1c2.34,2.34,2.34,6.15,0,8.49l-53.74,53.74
		c-1.12,1.12-2.63,1.74-4.24,1.74c-1.61,0-3.12-0.62-4.24-1.74l-89.1-89.1c-2.34-2.34-2.34-6.15,0-8.49l53.74-53.74
		C77.2,21.22,78.71,20.6,80.32,20.6 M80.32,14.6c-3.08,0-6.15,1.17-8.49,3.5L18.1,71.84c-4.67,4.67-4.67,12.3,0,16.97l89.1,89.1
		c2.33,2.33,5.41,3.5,8.49,3.5s6.15-1.17,8.49-3.5l53.74-53.74c4.67-4.67,4.67-12.3,0-16.97l-89.1-89.1
		C86.47,15.76,83.4,14.6,80.32,14.6L80.32,14.6z"/>
</g>
<g>
	<path fill-rule="evenodd" clip-rule="evenodd" fill="#01C77A" d="M96.63,180.55c-3.23,0-6.23-1.72-7.83-4.49l-63-109.12
		c-2.48-4.3-1-9.81,3.29-12.29l65.82-38c1.36-0.78,2.9-1.2,4.46-1.2c3.23,0,6.23,1.72,7.83,4.49l63,109.12
		c2.48,4.3,1,9.81-3.29,12.29l-65.82,38C99.74,180.14,98.19,180.55,96.63,180.55z"/>
	<path fill="#020420" d="M99.38,18.45c2.16,0,4.16,1.15,5.23,2.99l63,109.12c0.79,1.38,1,2.99,0.59,4.55
		c-0.42,1.56-1.41,2.85-2.78,3.65l-65.82,38c-0.9,0.52-1.93,0.79-2.97,0.79c-2.16,0-4.17-1.15-5.23-2.99l-63-109.12
		c-0.79-1.38-1-2.99-0.59-4.55c0.42-1.56,1.41-2.85,2.78-3.65l65.82-38C97.31,18.72,98.34,18.45,99.38,18.45 M99.37,12.45
		c-2.03,0-4.09,0.51-5.97,1.6l-65.82,38c-5.72,3.3-7.69,10.68-4.39,16.39l63,109.12c2.22,3.84,6.27,5.99,10.43,5.99
		c2.03,0,4.09-0.51,5.97-1.6l65.82-38c5.72-3.3,7.69-10.68,4.39-16.39l-63-109.12C107.58,14.6,103.53,12.45,99.37,12.45L99.37,12.45
		z"/>
</g>
<g>
	<path fill-rule="evenodd" clip-rule="evenodd" fill="#01EC90" d="M77.62,177.69c-4.08,0-7.66-2.74-8.71-6.67L36.3,49.31
		c-1.28-4.79,1.57-9.74,6.36-11.02l73.41-19.67c0.76-0.2,1.53-0.31,2.31-0.31c4.08,0,7.66,2.74,8.71,6.67l32.61,121.71
		c0.62,2.31,0.29,4.73-0.91,6.82c-1.21,2.09-3.14,3.58-5.45,4.2l-73.41,19.67C79.17,177.58,78.4,177.69,77.62,177.69z"/>
	<path fill="#020420" d="M118.38,15.31v6c2.72,0,5.11,1.83,5.81,4.45l32.61,121.71c0.86,3.2-1.05,6.49-4.24,7.35l-73.41,19.67
		c-0.5,0.13-1.02,0.2-1.53,0.2c-2.72,0-5.11-1.83-5.81-4.45L39.19,48.53C38.78,47,39,45.39,39.81,43.99c0.81-1.4,2.1-2.39,3.63-2.8
		l73.41-19.67c0.5-0.13,1.02-0.2,1.53-0.2L118.38,15.31 M118.38,15.31c-1.02,0-2.06,0.13-3.09,0.41L41.88,35.39
		c-6.38,1.71-10.19,8.32-8.49,14.7l32.61,121.71c1.43,5.35,6.31,8.89,11.61,8.89c1.02,0,2.06-0.13,3.09-0.41l73.41-19.67
		c6.38-1.71,10.19-8.32,8.49-14.7L129.99,24.21C128.56,18.86,123.68,15.31,118.38,15.31L118.38,15.31z"/>
</g>
<g>
	<path fill-rule="evenodd" clip-rule="evenodd" fill="#13FEA2" d="M60,170c-4.96,0-9-4.04-9-9V35c0-4.96,4.04-9,9-9h76
		c4.96,0,9,4.04,9,9v126c0,4.96-4.04,9-9,9H60z"/>
	<path fill="#020420" d="M136,29c3.31,0,6,2.69,6,6v126c0,3.31-2.69,6-6,6H60c-3.31,0-6-2.69-6-6V35c0-3.31,2.69-6,6-6H136 M136,23
		H60c-6.6,0-12,5.4-12,12v126c0,6.6,5.4,12,12,12h76c6.6,0,12-5.4,12-12V35C148,28.4,142.6,23,136,23L136,23z"/>
</g>
<path fill="#020420" d="M123.85,143h-51.6c-4,0-7.7-1.9-10-5.3c-2.4-3.5-2.9-7.9-1.4-11.9c5.8-14.8,20.7-24.8,37.2-24.8
	s31.4,10,37.1,24.8l0,0c1.5,4,1,8.4-1.4,11.9C131.55,141.1,127.85,143,123.85,143z M98.05,93c-11,0-20-9-20-20s9-20,20-20
	s20,9,20,20S109.05,93,98.05,93z"/>
</svg>
